<svg version="1.2" baseProfile="tiny" id="Layer_1" xmlns="http://www.w3.org/2000/svg"
    xmlns:xlink="http://www.w3.org/1999/xlink" x="0px" y="0px" viewBox="0 0 576.7 576.7"
    xml:space="preserve">
    <linearGradient id="SVGID_1_" gradientUnits="userSpaceOnUse" x1="95.3388" y1="113.2444"
        x2="522.4754" y2="500.7534">
        <stop offset="0" style="stop-color:#1623EB" />
        <stop offset="1" style="stop-color:#169FFF" />
    </linearGradient>
    <path fill="url(#SVGID_1_)"
        d="M288.3,0C129.1,0,0,129.1,0,288.3s129.1,288.3,288.3,288.3s288.3-129.1,288.3-288.3S447.6,0,288.3,0z M437.2,490.2c-41.7,30.8-93.1,49.3-148.8,49.3S181.3,521,139.5,490.2v-15.8c0-41,33.4-74.4,74.4-74.4c12.9,0,32,13.3,74.4,13.3 c42.6,0,61.4-13.3,74.4-13.3c41,0,74.4,33.4,74.4,74.4V490.2z M472.7,458.2c-7.9-53.9-53.8-95.5-110-95.5 c-23.8,0-35.3,13.3-74.4,13.3s-50.5-13.3-74.4-13.3c-56.2,0-102.1,41.5-110,95.5c-41.3-44.8-66.7-104.3-66.7-169.9 c0-138.5,112.7-251.1,251.1-251.1s251.1,112.7,251.1,251.1C539.5,353.9,514,413.4,472.7,458.2z M288.3,130.2 C231.8,130.2,186,176,186,232.5s45.8,102.3,102.3,102.3S390.7,289,390.7,232.5S344.8,130.2,288.3,130.2z M288.3,297.6 c-35.9,0-65.1-29.2-65.1-65.1s29.2-65.1,65.1-65.1s65.1,29.2,65.1,65.1S324.3,297.6,288.3,297.6z" />
</svg>